<?xml version="1.0" standalone="no"?>
<!DOCTYPE svg PUBLIC "-//W3C//DTD SVG 20010904//EN"
 "http://www.w3.org/TR/2001/REC-SVG-20010904/DTD/svg10.dtd">
<svg version="1.0" xmlns="http://www.w3.org/2000/svg"
 width="400.000000pt" height="400.000000pt" viewBox="0 0 400.000000 400.000000"
 preserveAspectRatio="xMidYMid meet">
<metadata>
Created by potrace 1.14, written by Peter Selinger 2001-2017
</metadata>
<g transform="translate(0.000000,400.000000) scale(0.100000,-0.100000)"
fill="#000000" stroke="none">
<path d="M2660 3373 c0 -8 -4 -12 -8 -9 -5 3 -15 -7 -23 -22 -8 -15 -21 -33
-29 -40 -8 -8 -9 -11 -3 -7 9 4 11 1 7 -9 -3 -9 -10 -13 -15 -10 -8 4 -13 -11
-6 -19 1 -1 -12 -17 -30 -34 -17 -17 -29 -34 -26 -37 3 -3 -9 -19 -26 -36 -17
-18 -29 -36 -25 -41 3 -5 -2 -12 -10 -15 -9 -3 -16 -10 -16 -15 0 -6 -9 -19
-20 -31 -10 -12 -17 -24 -15 -28 3 -5 -2 -11 -11 -14 -8 -3 -12 -10 -9 -16 3
-5 -2 -10 -12 -10 -15 0 -16 -2 -3 -10 13 -8 12 -10 -3 -10 -9 0 -16 -6 -15
-12 2 -7 -3 -12 -9 -10 -11 2 -18 -17 -14 -41 0 -4 -5 -6 -11 -5 -7 2 -12 -3
-10 -9 1 -7 -2 -13 -7 -13 -5 0 -16 -11 -25 -25 -12 -18 -14 -30 -7 -44 7 -12
6 -22 -2 -32 -7 -7 -2 -5 11 5 23 20 31 10 10 -14 -11 -12 -10 -12 2 -3 20 14
70 22 70 12 0 -5 -8 -9 -17 -10 -12 0 -13 -2 -5 -6 7 -3 19 1 27 7 18 15 19 7
4 -23 -10 -21 -10 -21 8 1 15 18 21 20 31 10 8 -7 13 -8 12 -3 -5 22 1 25 23
10 13 -8 27 -12 30 -8 4 3 7 1 7 -5 0 -7 5 -12 11 -12 5 0 8 4 5 8 -4 7 29 8
44 1 5 -2 33 -6 64 -8 13 -1 17 -7 13 -21 -3 -11 -1 -18 4 -14 5 3 9 12 9 20
0 16 16 19 25 4 3 -5 1 -10 -6 -10 -7 0 -10 -3 -6 -6 3 -3 12 -2 19 2 19 12
50 16 44 5 -3 -5 1 -12 10 -15 8 -3 12 -2 9 4 -3 5 4 8 15 7 11 -1 20 -5 20
-10 0 -5 7 -3 16 4 15 12 16 11 10 -11 -6 -19 -5 -21 3 -10 10 14 12 13 15 -9
0 -5 5 -13 10 -18 5 -5 6 -3 2 5 -4 7 -1 15 8 18 9 3 14 10 11 14 -6 10 15 8
31 -3 7 -4 18 1 25 11 13 16 12 16 -6 3 -11 -7 -5 0 13 18 17 17 33 34 33 38
1 5 6 7 11 5 6 -2 8 4 5 12 -7 18 18 40 35 30 10 -5 10 -4 1 6 -10 11 -7 18
15 38 15 13 20 21 12 17 -9 -4 -7 0 3 8 10 9 18 19 19 24 0 4 4 7 9 5 5 -1 9
7 9 17 0 11 10 27 22 35 12 9 18 16 13 16 -6 0 1 10 15 21 14 11 18 18 10 14
-8 -4 -5 2 7 13 12 11 19 22 16 26 -4 3 -1 6 5 6 7 0 12 7 12 15 0 8 6 12 14
9 11 -4 14 1 12 20 -2 14 1 23 5 20 5 -3 18 11 30 30 12 20 25 36 30 36 5 0 8
3 8 8 -3 19 2 33 10 28 14 -9 29 16 29 47 0 22 -5 27 -24 27 -13 0 -24 4 -24
9 0 5 -12 9 -27 8 -53 0 -64 3 -57 16 5 7 1 7 -10 -2 -15 -12 -19 -13 -26 -1
-7 12 -11 11 -26 -1 -15 -12 -17 -12 -9 0 6 11 4 13 -8 8 -9 -3 -18 -1 -21 6
-3 9 -7 9 -14 -1 -7 -10 -11 -10 -22 3 -11 13 -15 13 -22 3 -6 -10 -10 -10
-18 2 -5 8 -10 11 -10 5 0 -5 -5 -3 -10 5 -8 12 -10 12 -10 1 0 -10 -3 -11
-14 -2 -11 9 -15 9 -19 -1 -4 -9 -6 -10 -6 -1 -1 7 -8 10 -16 7 -8 -4 -15 -1
-15 6 0 9 -4 9 -17 -1 -9 -8 -14 -9 -10 -3 4 7 -7 11 -30 12 -20 1 -40 7 -45
14 -6 10 -8 10 -8 1 0 -9 -7 -10 -23 -4 -38 15 -97 11 -97 -6z m170 -679 c0
-8 -5 -12 -10 -9 -6 4 -8 11 -5 16 9 14 15 11 15 -7z"/>
<path d="M1553 3370 c-23 -4 -49 -5 -58 -4 -8 1 -15 -1 -15 -5 0 -4 -6 -8 -12
-8 -30 -1 -104 -15 -113 -22 -5 -4 -19 -7 -30 -7 -11 1 -23 -3 -26 -8 -4 -4
-21 -9 -38 -10 -17 0 -31 -4 -31 -8 0 -4 -12 -3 -26 2 -32 13 -37 13 -28 -1 4
-8 1 -8 -12 -1 -22 11 -303 10 -321 -1 -7 -5 -13 -6 -13 -3 0 3 -11 1 -25 -4
-17 -6 -25 -6 -25 1 0 6 -7 3 -16 -6 -13 -13 -19 -13 -32 -3 -10 8 -13 9 -9 1
5 -7 -4 -14 -23 -18 -16 -4 -30 -11 -30 -16 0 -6 -3 -8 -7 -6 -5 3 -14 -1 -21
-9 -7 -8 -9 -14 -5 -14 4 0 2 -4 -5 -8 -9 -7 -7 -15 12 -35 14 -15 30 -27 36
-27 5 0 10 -5 10 -11 0 -5 5 -7 10 -4 6 3 13 -1 16 -9 3 -9 12 -16 20 -16 8 0
14 -6 14 -14 0 -8 9 -18 20 -21 11 -4 18 -11 15 -16 -4 -5 -2 -9 3 -9 18 0 23
-33 7 -42 -8 -5 -15 -15 -15 -22 0 -7 -11 -19 -25 -26 -14 -7 -23 -16 -20 -18
2 -3 -8 -16 -23 -28 -15 -13 -23 -24 -19 -24 4 0 -1 -10 -13 -22 -11 -13 -31
-37 -45 -55 -23 -28 -29 -30 -55 -23 -17 5 -30 6 -30 3 0 -3 -7 0 -15 7 -8 6
-19 9 -24 6 -5 -4 -12 -2 -15 3 -3 5 -16 7 -28 3 -12 -3 -19 -1 -15 4 3 5 -3
10 -13 10 -10 0 -16 -5 -13 -10 4 -5 1 -6 -7 -1 -15 9 -76 16 -167 18 -35 0
-63 5 -63 10 0 4 -5 5 -10 2 -8 -5 -8 -11 0 -20 8 -10 8 -15 -1 -21 -7 -4 -9
-3 -6 3 4 6 0 16 -8 23 -8 7 -15 9 -15 5 0 -4 -8 -1 -17 6 -14 12 -16 12 -8 0
6 -11 4 -13 -8 -8 -9 3 -19 2 -22 -4 -4 -5 -11 -7 -16 -4 -5 4 -9 1 -9 -4 0
-14 13 -14 27 0 9 9 12 7 10 -10 -1 -14 -6 -20 -15 -16 -11 4 -11 0 2 -20 18
-27 15 -30 -14 -15 -16 8 -18 8 -14 -5 3 -8 10 -12 15 -9 5 3 9 1 9 -4 0 -5 7
-9 15 -9 8 0 11 5 8 10 -4 6 -1 7 7 2 10 -6 11 -4 4 6 -13 21 -14 39 -2 39 6
0 8 7 5 14 -4 10 -1 13 9 9 11 -4 12 -9 5 -16 -6 -6 -11 -15 -11 -21 0 -6 5
-5 12 2 15 15 28 15 28 0 0 -6 -3 -8 -7 -5 -13 14 -33 -14 -23 -33 6 -10 7
-26 3 -35 -5 -15 -3 -16 17 -5 16 8 20 9 15 1 -4 -7 -1 -20 6 -29 13 -16 12
-15 -7 0 -16 14 -23 15 -32 6 -19 -19 -14 -32 6 -17 16 13 16 13 0 -7 -17 -19
-17 -22 -1 -45 16 -22 16 -23 0 -11 -9 8 -20 11 -25 8 -5 -3 -9 1 -9 9 0 8 3
12 7 10 4 -2 7 2 7 10 0 8 -3 12 -7 10 -4 -2 -7 2 -7 10 0 8 3 15 7 15 4 0 7
6 7 14 0 15 -8 15 -49 -2 -34 -14 -36 -21 -4 -15 30 6 41 -10 19 -28 -15 -12
-16 -12 -9 6 5 14 4 17 -4 9 -6 -6 -8 -19 -4 -28 5 -13 9 -14 14 -6 4 7 10 8
13 3 3 -5 -8 -26 -24 -46 -17 -20 -24 -34 -15 -31 8 3 17 12 20 20 3 8 11 14
17 14 8 0 8 -4 -1 -15 -7 -8 -9 -15 -4 -15 4 0 0 -6 -11 -13 -14 -11 -15 -16
-5 -22 9 -6 11 -4 5 5 -5 8 -3 11 5 8 7 -2 14 -12 16 -23 3 -22 -20 -58 -31
-47 -5 4 -4 1 0 -7 6 -10 4 -13 -7 -9 -8 4 -15 1 -15 -7 0 -19 34 -6 44 18 6
12 12 17 16 10 4 -6 -3 -23 -14 -37 l-21 -26 33 -31 c25 -23 29 -32 20 -42 -7
-7 -11 -7 -9 -2 2 6 -1 11 -6 12 -5 1 -17 14 -27 30 -10 15 -19 25 -19 20 0
-4 10 -23 23 -42 23 -37 44 -45 53 -20 4 8 14 15 23 14 10 0 11 -2 3 -6 -6 -2
-10 -8 -7 -13 3 -4 -2 -13 -10 -20 -19 -16 -20 -31 -1 -24 23 9 29 -16 9 -38
-16 -19 -16 -21 -1 -15 26 9 30 -8 8 -36 -11 -14 -16 -28 -11 -31 5 -4 11 0
14 6 2 7 8 10 12 5 12 -10 -26 -36 -47 -32 -10 2 -16 0 -13 -6 4 -5 -2 -9 -12
-10 -11 0 -13 -3 -5 -6 7 -3 19 1 27 7 13 11 15 9 11 -11 -3 -13 -5 -28 -6
-34 -1 -5 -5 -1 -10 10 -6 14 -9 15 -9 5 -1 -9 6 -26 15 -38 16 -23 7 -31 -13
-11 -9 9 -11 7 -9 -7 2 -11 10 -18 18 -16 8 1 15 -5 15 -13 0 -9 -6 -14 -13
-11 -20 8 -26 -10 -9 -24 12 -10 13 -16 3 -29 -12 -15 -11 -15 6 -1 18 14 19
13 13 -2 -4 -11 -2 -15 7 -12 7 3 13 -2 13 -11 0 -10 -6 -13 -17 -10 -10 3
-17 0 -17 -8 0 -9 7 -12 19 -9 10 2 18 -1 18 -7 0 -7 -4 -10 -8 -7 -15 9 -10
-28 6 -46 14 -16 13 -18 -7 -18 -14 0 -20 4 -15 12 5 7 3 8 -5 3 -15 -9 -5
-20 26 -29 18 -6 21 -4 18 14 -3 14 0 18 8 13 7 -4 5 2 -3 12 -8 10 -10 16 -3
12 6 -4 14 -3 17 2 3 5 0 11 -8 14 -8 3 -17 -1 -20 -10 -4 -9 -9 -13 -13 -10
-3 4 0 13 6 21 7 8 10 21 6 28 -4 7 1 4 10 -7 16 -20 16 -20 31 0 14 19 15 19
11 -3 -2 -12 -8 -27 -14 -33 -12 -12 -6 -42 6 -34 4 2 8 -2 8 -10 0 -8 -4 -15
-9 -15 -4 0 -8 5 -8 10 0 6 -4 10 -8 10 -13 0 -10 -30 2 -31 6 -1 17 -2 25 -3
23 -2 24 -24 2 -36 -12 -6 -21 -16 -21 -23 0 -9 2 -9 8 0 5 8 13 9 22 3 13 -8
12 -10 -2 -10 -26 0 -33 4 -32 17 1 7 -3 10 -10 6 -6 -3 -6 0 2 8 17 18 15 32
-4 25 -8 -3 -13 -2 -9 3 6 10 -21 9 -31 -1 -14 -15 7 -28 28 -17 20 11 20 11
2 -14 -11 -14 -28 -31 -39 -37 -14 -8 -15 -9 -2 -6 20 6 49 -3 42 -13 -2 -4 2
-8 10 -8 8 0 12 4 9 9 -3 5 -2 8 3 7 4 -1 10 0 13 1 20 8 47 4 47 -6 0 -9 -5
-10 -18 -3 -14 7 -21 4 -34 -13 -8 -13 -19 -22 -23 -21 -11 4 -44 -8 -39 -14
3 -2 14 0 26 6 13 7 22 8 26 1 3 -5 -1 -10 -9 -10 -20 0 -29 -17 -15 -26 7 -4
9 -3 6 3 -4 6 3 13 15 16 12 4 19 9 15 13 -8 8 11 34 24 34 5 0 9 -5 9 -11 0
-5 -5 -7 -10 -4 -6 3 -10 -3 -10 -15 0 -12 4 -19 9 -15 17 10 34 -34 20 -51
-14 -17 2 -19 20 -1 11 10 13 9 7 -1 -10 -17 -64 -44 -75 -37 -11 6 -8 -21 2
-31 4 -4 1 -14 -6 -23 -10 -14 -10 -14 4 -4 9 7 19 10 22 6 4 -3 -1 -12 -11
-19 -9 -7 -12 -14 -6 -14 17 0 32 22 29 43 -2 9 1 17 6 17 6 0 8 4 4 9 -9 15
15 25 28 12 9 -9 7 -10 -8 -5 -18 7 -18 6 -6 -9 7 -9 18 -14 23 -11 6 4 6 -1
-1 -13 -8 -15 -6 -26 6 -44 16 -23 16 -23 0 -10 -9 7 -17 9 -17 3 0 -5 12 -17
26 -27 15 -9 23 -12 20 -6 -4 6 0 11 11 12 10 0 13 3 6 6 -10 3 -10 7 0 18 7
7 16 10 21 7 5 -3 6 0 3 5 -4 6 0 16 8 23 8 7 15 19 15 26 0 8 7 14 16 14 8 0
12 5 9 10 -3 6 -1 10 5 10 6 0 8 5 4 12 -5 7 -2 9 9 5 11 -4 15 -1 12 14 -3
12 2 19 13 20 9 0 12 3 5 5 -8 4 -5 12 8 25 11 11 17 25 13 31 -4 6 -3 8 3 5
6 -4 19 1 29 9 10 9 13 12 5 8 -9 -4 -12 -3 -7 4 3 6 15 10 26 9 10 -1 16 -5
14 -9 -3 -4 5 -8 18 -9 22 0 22 -1 3 -9 -11 -5 -14 -9 -6 -9 8 -1 20 -9 28
-18 9 -11 11 -12 7 -3 -5 10 -1 9 14 -4 12 -10 19 -23 15 -29 -4 -6 2 -8 15
-5 12 4 20 2 17 -2 -7 -11 30 -32 39 -23 3 3 6 -1 6 -11 0 -14 -3 -15 -22 -5
-13 7 -26 17 -30 23 -4 6 -6 1 -5 -11 0 -12 5 -19 9 -17 4 3 16 0 26 -5 13 -7
22 -7 30 1 16 16 15 -4 0 -22 -11 -12 -10 -12 4 -1 11 8 25 10 35 6 10 -5 21
-8 25 -7 8 2 4 -25 -5 -34 -4 -4 -7 -2 -7 4 0 7 -5 12 -11 12 -8 0 -8 -5 1
-15 10 -12 16 -12 26 -4 8 6 21 9 29 5 12 -4 14 -10 5 -25 -5 -11 -10 -23 -10
-28 1 -4 8 5 16 20 15 28 16 28 35 11 10 -9 19 -13 19 -9 0 5 9 -1 20 -13 11
-12 27 -19 34 -16 9 3 20 -3 28 -15 14 -22 34 -30 22 -8 -4 6 2 4 14 -6 11
-11 25 -16 31 -13 6 4 8 -3 6 -16 -4 -21 -3 -22 9 -5 18 23 29 22 16 -3 -7
-14 -7 -20 0 -20 5 0 10 5 10 11 0 8 4 9 13 0 8 -6 17 -8 20 -4 4 3 7 1 7 -7
0 -10 3 -10 18 1 9 7 14 10 10 5 -4 -5 0 -15 8 -23 8 -8 12 -19 9 -24 -4 -5
-1 -9 5 -9 6 0 8 11 4 28 -6 25 -5 26 8 8 8 -10 20 -16 26 -12 7 4 12 1 12 -8
0 -9 5 -16 11 -16 5 0 8 4 5 9 -4 5 2 8 11 6 10 -2 21 -4 25 -4 4 -1 14 -8 22
-17 9 -8 16 -12 16 -7 0 5 11 9 24 9 14 0 24 -4 23 -9 -1 -5 4 -12 12 -15 9
-3 11 0 6 9 -6 11 -5 11 5 2 7 -6 19 -9 26 -6 9 3 14 -2 14 -13 0 -15 2 -16 9
-5 7 11 9 11 14 0 4 -12 7 -11 16 1 10 13 11 13 11 0 0 -12 2 -13 9 -1 5 7 13
11 19 7 6 -3 13 0 15 6 3 7 6 4 6 -6 1 -19 1 -19 14 -1 9 12 16 14 21 7 4 -6
13 -9 21 -6 8 4 12 11 8 18 -4 6 2 4 12 -4 11 -9 16 -10 11 -3 -4 7 -4 13 1
14 4 0 18 2 31 5 16 3 21 0 16 -8 -4 -7 -3 -8 4 -4 7 4 12 15 12 24 0 13 2 14
9 3 6 -9 11 -10 15 -2 4 6 11 9 16 6 15 -9 51 15 44 28 -5 9 -4 9 6 0 11 -10
16 -9 27 5 8 9 12 11 8 5 -4 -9 -1 -11 9 -7 9 3 13 11 9 18 -4 8 -2 8 7 -1 15
-14 43 -6 33 10 -4 6 0 8 11 4 10 -4 15 -3 11 3 -3 6 1 10 10 10 9 0 13 5 9
11 -4 7 2 6 17 -2 22 -11 23 -11 10 5 -12 15 -12 17 0 14 8 -2 13 3 11 10 -1
8 2 11 7 7 6 -3 7 -13 4 -23 -5 -14 -3 -14 9 2 10 13 20 16 29 11 11 -7 11 -5
-1 10 -9 11 -10 16 -2 11 7 -4 12 -2 12 4 0 6 5 8 10 5 6 -3 10 -2 10 4 0 6 7
7 17 4 10 -4 14 -2 10 4 -8 12 20 26 34 18 5 -4 6 2 2 12 -6 16 -5 17 12 3 10
-8 16 -10 14 -5 -7 12 26 46 35 37 3 -3 6 0 6 5 0 6 -6 14 -12 16 -7 3 1 4 17
4 21 -2 29 2 27 12 -2 8 3 11 12 8 9 -4 15 -3 13 1 -1 4 3 9 8 12 19 8 52 45
48 52 -2 4 3 5 11 2 11 -4 16 0 16 10 0 9 6 16 13 16 8 0 22 10 33 22 10 12
13 18 5 13 -10 -6 -12 -4 -7 4 6 9 11 9 24 -1 13 -11 14 -11 8 0 -10 16 12 44
28 35 6 -4 5 1 -3 10 -12 15 -12 17 4 11 11 -5 16 -3 12 2 -3 6 7 11 23 12 18
1 30 -4 34 -14 4 -10 13 -14 26 -11 11 3 18 1 14 -4 -3 -5 -1 -9 4 -9 4 0 18
-9 30 -20 12 -12 22 -16 22 -9 0 7 8 3 18 -7 9 -11 29 -25 45 -33 15 -8 27
-18 27 -23 0 -5 5 -6 10 -3 6 3 10 1 10 -5 0 -7 6 -10 13 -7 7 3 19 -4 25 -14
7 -10 21 -19 33 -19 11 0 17 -5 14 -10 -3 -5 2 -10 13 -10 10 0 27 -9 37 -20
10 -11 25 -20 34 -20 9 0 23 -6 32 -13 9 -7 43 -12 78 -11 33 1 61 -3 61 -7 0
-5 11 -9 25 -9 14 0 25 -5 25 -11 0 -5 4 -8 9 -4 6 3 14 -3 20 -12 6 -10 11
-14 11 -8 0 5 15 -7 33 -27 55 -62 59 -69 53 -83 -3 -8 0 -14 6 -12 14 2 28
-67 17 -85 -4 -6 -4 -20 2 -29 6 -12 4 -19 -5 -22 -9 -3 -12 -15 -9 -31 3 -16
1 -26 -6 -26 -7 0 -9 -4 -6 -10 3 -5 1 -10 -6 -10 -7 0 -10 -3 -6 -6 3 -3 -5
-18 -19 -32 -13 -15 -24 -30 -24 -34 0 -5 -7 -8 -16 -8 -9 0 -12 -5 -8 -12 5
-8 2 -9 -9 -5 -11 4 -17 1 -17 -7 0 -7 -6 -13 -12 -14 -35 -3 -53 -11 -50 -23
2 -9 0 -10 -11 -1 -8 7 -17 9 -20 5 -11 -11 -57 -12 -57 -2 0 6 -6 7 -12 2
-18 -11 -68 -11 -61 0 3 5 0 7 -8 5 -14 -5 -71 10 -124 32 -16 7 -34 12 -38
12 -4 -1 -10 4 -13 12 -3 9 -13 12 -22 9 -9 -4 -14 -3 -10 2 4 4 -5 18 -21 29
-15 12 -26 27 -24 34 3 6 0 12 -7 12 -6 0 -9 4 -6 9 8 12 -31 54 -43 46 -6 -3
-11 -1 -11 6 0 7 -3 9 -7 6 -3 -4 -13 -1 -21 6 -13 10 -14 9 -7 -2 6 -11 5
-12 -6 -5 -15 9 -29 12 -71 16 -16 1 -28 5 -28 8 0 3 -19 6 -43 8 -39 2 -82 8
-82 12 0 1 -17 3 -37 5 -22 1 -35 -2 -32 -7 4 -6 -4 -5 -16 2 -12 7 -20 8 -16
2 3 -5 0 -12 -7 -15 -8 -3 -12 -18 -11 -36 1 -18 -3 -31 -9 -31 -7 0 -6 -4 2
-9 8 -5 15 -20 16 -33 1 -15 8 -22 19 -22 14 2 15 -1 4 -14 -11 -13 -11 -14 0
-8 18 11 41 -11 37 -35 -2 -11 0 -17 6 -14 5 4 7 11 4 16 -9 14 5 11 22 -6 8
-8 20 -12 26 -8 7 3 9 3 5 -2 -4 -4 1 -15 10 -24 11 -10 12 -12 2 -6 -13 8
-13 8 -3 -6 7 -9 9 -20 5 -25 -4 -5 4 0 17 11 14 11 21 14 16 6 -6 -11 -4 -13
9 -8 16 6 17 3 11 -20 -6 -27 -6 -27 10 -8 13 16 16 17 11 3 -3 -10 0 -20 6
-24 6 -4 8 -3 5 3 -4 6 0 14 9 17 25 9 27 7 13 -11 -10 -11 -10 -14 -2 -9 8 4
13 2 13 -6 0 -9 3 -9 10 2 5 8 10 10 10 4 0 -6 7 -11 15 -12 8 -1 22 -3 30 -4
8 -1 12 -5 9 -10 -5 -7 19 -13 40 -9 5 1 4 -4 -2 -12 -10 -11 -8 -19 8 -38 11
-13 19 -18 18 -10 -2 7 3 16 11 19 9 3 11 0 6 -8 -5 -9 -4 -11 4 -6 6 4 18 2
26 -4 8 -7 15 -9 15 -5 0 4 8 1 17 -6 14 -12 16 -12 8 0 -6 11 -4 13 8 8 9 -3
18 -1 21 6 3 8 5 7 5 -2 1 -8 -7 -20 -16 -28 -11 -9 -12 -12 -3 -7 8 4 26 16
39 28 13 12 21 15 16 7 -6 -11 -4 -13 8 -8 9 3 16 3 16 -1 -3 -19 2 -23 16
-12 13 11 14 10 9 -4 -7 -19 -16 -20 -32 -4 -8 8 -12 8 -12 1 0 -15 26 -24 47
-16 12 5 14 3 8 -8 -7 -11 -6 -12 6 -2 8 6 25 13 39 15 14 1 29 8 33 13 5 6 7
4 4 -5 -2 -8 -10 -14 -16 -12 -7 1 -9 -2 -6 -8 4 -6 14 -9 22 -6 12 5 14 1 10
-14 -3 -12 -1 -18 5 -14 5 3 8 14 5 24 -3 11 2 21 10 24 8 3 12 2 9 -2 -6 -10
3 -22 29 -42 19 -14 19 -14 5 4 -14 18 -13 19 4 13 17 -7 17 -6 5 10 -11 13
-11 15 -1 9 19 -12 94 -18 88 -8 -3 5 1 9 9 9 8 0 12 -4 9 -9 -3 -4 0 -8 6 -8
6 0 9 -4 6 -8 -2 -4 4 -8 14 -8 10 0 16 4 14 8 -10 15 9 8 23 -10 11 -12 10
-8 -1 10 l-16 28 25 -12 c13 -6 23 -14 20 -17 -2 -4 5 -7 15 -7 10 0 16 6 13
13 -3 7 -9 11 -13 8 -4 -3 -14 3 -21 13 -11 14 -11 15 1 5 9 -8 19 -9 31 -2
15 8 17 6 12 -7 -4 -12 -3 -15 5 -10 7 4 12 2 12 -6 0 -10 2 -10 9 0 4 8 12
13 17 13 5 -1 9 3 9 8 0 5 4 13 9 18 5 5 6 3 2 -4 -12 -21 4 -15 26 10 11 12
17 18 15 12 -2 -5 -1 -19 4 -30 7 -18 8 -18 8 -2 1 10 5 15 11 12 5 -3 7 0 4
8 -3 9 3 16 16 20 17 4 19 3 10 -8 -8 -10 -8 -15 2 -21 7 -4 10 -4 6 1 -4 4
-1 14 7 21 18 18 26 18 19 -1 -4 -8 -1 -15 5 -15 6 0 10 3 10 8 -1 4 -1 18 0
32 1 20 3 22 11 10 9 -13 14 -7 11 12 0 4 6 5 15 1 8 -3 14 -2 13 3 -3 21 2
26 15 15 11 -9 16 -9 22 0 5 8 3 10 -7 4 -8 -4 9 14 36 40 28 26 43 44 35 40
-8 -5 -5 2 8 14 12 12 22 31 22 41 0 11 4 20 9 20 6 0 8 9 6 20 -2 11 0 22 5
25 4 3 6 21 4 40 -2 26 0 34 9 28 9 -5 9 -4 0 8 -7 8 -14 30 -16 49 -2 19 -8
44 -12 55 -17 47 -36 85 -45 90 -6 4 -8 11 -5 16 4 5 -2 9 -11 9 -10 0 -15 3
-11 6 6 6 -38 55 -49 54 -3 -1 -13 8 -23 19 -9 11 -24 21 -32 23 -8 2 -20 11
-27 21 -7 9 -20 17 -28 17 -8 0 -14 5 -14 10 0 6 -5 10 -11 10 -6 0 -17 7 -26
15 -8 8 -19 13 -24 10 -5 -4 -9 -1 -9 4 0 6 -7 11 -15 11 -8 0 -15 4 -15 9 0
10 -39 27 -52 23 -5 -1 -8 5 -8 14 0 10 -5 14 -16 10 -10 -4 -13 -2 -8 6 5 7
2 9 -8 5 -9 -3 -25 3 -36 13 -11 10 -23 16 -26 13 -3 -4 -6 -1 -6 5 0 7 -3 12
-7 11 -16 -2 -53 14 -53 23 0 6 -7 7 -15 4 -9 -3 -18 0 -21 7 -3 8 -32 13 -87
15 -45 1 -90 2 -99 3 -10 0 -18 4 -18 10 0 5 -12 9 -26 9 -14 0 -23 4 -19 10
3 6 -3 10 -14 10 -12 0 -21 5 -21 11 0 5 -4 7 -10 4 -5 -3 -10 -1 -10 6 0 6
-9 19 -20 29 -28 24 -68 116 -66 151 1 16 -2 29 -7 29 -6 0 -6 5 0 13 6 6 9
24 8 39 -1 15 2 25 7 22 4 -3 8 1 8 10 0 8 6 17 13 19 9 4 8 6 -2 6 -9 1 -2
13 17 31 18 17 29 30 25 30 -4 0 2 8 13 18 20 19 54 36 67 34 4 -1 7 5 7 13 0
8 3 14 8 13 4 -1 30 2 57 7 48 8 79 10 90 5 3 -1 13 -3 23 -4 9 -1 28 -8 41
-15 19 -10 22 -11 15 0 -4 7 7 3 24 -10 18 -12 32 -28 32 -34 0 -8 3 -7 9 2 7
11 10 9 15 -7 4 -11 13 -23 21 -26 8 -3 15 -12 15 -21 0 -8 3 -15 8 -15 9 0
33 -53 35 -79 1 -12 4 -21 8 -21 4 0 6 -8 4 -17 -1 -10 2 -26 7 -37 8 -14 7
-17 -4 -10 -7 5 -5 -4 6 -21 23 -34 46 -60 46 -49 0 3 6 2 13 -3 6 -5 24 -9
40 -8 15 0 27 -2 27 -5 0 -3 17 -6 38 -8 20 -1 46 -4 57 -7 11 -2 24 -4 28 -4
5 -1 5 -7 1 -13 -6 -10 -4 -10 7 -2 8 6 22 10 32 8 9 -2 24 -5 32 -7 8 -2 18
-6 21 -10 4 -4 13 -2 21 4 9 9 13 8 13 0 0 -14 60 -11 61 4 5 56 4 68 -8 81
-13 13 -21 15 -39 13 -3 0 -12 8 -20 18 -7 10 -14 14 -14 10 0 -4 -11 3 -23
17 -13 14 -26 24 -28 21 -3 -2 -15 16 -28 41 -13 24 -28 44 -33 44 -5 0 -6 5
-3 10 3 6 1 10 -5 10 -6 0 -8 5 -4 12 4 7 3 8 -4 4 -7 -4 -17 3 -24 18 -6 14
-17 26 -24 26 -7 0 -16 9 -19 20 -3 11 -12 20 -20 20 -8 0 -17 9 -20 21 -4 11
-9 18 -12 16 -4 -5 -34 17 -69 51 -8 7 -14 11 -14 7 0 -4 -7 1 -16 9 -8 9 -22
16 -30 16 -8 0 -12 5 -9 10 3 6 -3 10 -14 10 -12 0 -21 5 -21 11 0 5 -4 7 -10
4 -5 -3 -10 -1 -10 4 0 6 -3 11 -7 10 -15 -2 -53 14 -53 22 0 5 -6 6 -14 3 -8
-3 -17 0 -21 5 -3 6 -11 9 -16 6 -5 -4 -9 -1 -9 6 0 7 -3 9 -6 6 -4 -3 -16 -1
-28 5 -19 10 -63 18 -123 21 -13 0 -23 5 -23 10 0 5 -8 3 -17 -4 -14 -12 -15
-12 -9 -1 7 11 4 12 -13 3 -13 -8 -21 -8 -21 -2 0 7 -8 7 -24 1 -15 -5 -27 -5
-35 3 -6 6 -11 7 -11 1 0 -6 -10 -10 -22 -10 -36 -1 -108 -16 -108 -23 0 -4
-9 -7 -21 -8 -12 -1 -28 -10 -36 -20 -8 -10 -11 -12 -8 -5 4 8 -11 2 -34 -13
-22 -15 -41 -32 -41 -36 0 -5 -3 -8 -7 -6 -5 1 -9 -1 -10 -6 -5 -14 -38 -44
-45 -40 -5 2 -8 -3 -8 -12 0 -21 -25 -46 -36 -37 -5 4 -2 -1 5 -10 9 -12 10
-18 2 -18 -6 0 -13 -11 -17 -25 -3 -14 -10 -25 -16 -25 -5 0 -7 4 -4 9 3 4 -6
7 -20 5 -14 -1 -28 4 -30 11 -3 8 -12 11 -19 9 -7 -3 -16 0 -20 5 -3 6 -11 9
-16 6 -5 -4 -9 -2 -9 3 0 8 -49 27 -58 22 -2 -1 -12 8 -21 19 -10 11 -21 18
-24 14 -9 -8 -59 26 -52 37 3 4 -4 6 -15 3 -11 -3 -20 -1 -20 5 0 5 -8 9 -17
8 -10 0 -17 5 -15 12 1 8 -2 11 -7 8 -13 -8 -80 26 -81 41 0 6 -5 15 -12 19
-6 4 -8 3 -5 -2 3 -5 -3 -10 -13 -10 -10 0 -16 4 -14 8 3 4 0 8 -5 8 -6 0 -11
5 -11 11 0 8 4 8 14 0 10 -9 16 -8 26 4 7 9 20 13 28 10 9 -3 19 0 24 7 6 11
8 11 8 0 0 -10 5 -10 23 -1 21 12 21 11 7 -6 -10 -13 -11 -16 -2 -11 8 5 36 8
64 9 42 0 53 -4 63 -22 10 -20 13 -21 25 -6 11 13 10 15 -4 9 -9 -3 -16 -2
-16 3 0 5 13 9 29 8 23 0 27 -3 18 -13 -8 -10 -7 -12 4 -10 8 2 17 8 21 13 5
6 8 5 8 -3 0 -7 5 -10 12 -6 7 5 8 3 3 -6 -6 -10 -4 -12 9 -7 14 6 17 3 12 -9
-5 -14 -4 -15 9 -4 17 14 19 7 5 -20 -7 -13 -7 -21 0 -25 6 -4 10 -3 9 2 -4
20 2 31 21 36 10 3 19 2 18 -2 -1 -3 16 -24 37 -46 21 -22 33 -32 26 -23 -11
15 -9 18 14 24 17 4 24 11 21 20 -3 8 0 14 7 14 8 0 8 3 -2 9 -11 7 -11 9 0
14 11 4 11 6 1 6 -7 1 -10 6 -7 11 3 6 1 10 -6 10 -7 0 -9 3 -6 7 4 3 3 11 -2
17 -6 7 -12 23 -15 36 -7 38 -17 60 -28 60 -5 0 -7 4 -4 9 7 11 -32 91 -44 91
-5 0 -7 6 -4 14 3 8 0 17 -5 21 -6 3 -9 11 -5 16 3 5 0 8 -8 7 -7 -2 -12 3
-11 10 2 6 -2 12 -7 12 -6 0 -10 6 -10 13 0 7 -8 22 -18 33 -10 10 -20 24 -23
29 -2 6 -8 9 -12 7 -5 -1 -6 2 -3 6 3 5 -3 20 -14 32 -21 24 -18 43 5 33 27
-10 25 47 -3 77 -12 13 -22 20 -22 16 0 -4 -6 -1 -13 6 -8 7 -28 23 -44 36
-31 23 -31 24 -31 120 -1 53 -3 107 -6 119 -7 33 -26 64 -35 58 -5 -3 -12 2
-15 11 -3 8 -10 12 -16 9 -5 -3 -10 -1 -10 6 0 7 -3 10 -6 6 -3 -3 -22 0 -42
7 -21 7 -54 13 -75 12 -20 -1 -37 1 -37 4 0 7 -67 7 -117 0z m42 -140 c3 -6
-1 -7 -9 -4 -18 7 -21 14 -7 14 6 0 13 -4 16 -10z m-625 -495 c-7 -9 -10 -18
-6 -22 3 -3 6 -1 6 5 0 7 5 12 11 12 6 0 9 -9 6 -20 -3 -11 -1 -20 5 -20 5 0
6 -4 3 -10 -3 -5 0 -10 7 -10 9 0 9 -3 -2 -10 -10 -6 -11 -10 -2 -10 6 0 12
-7 12 -15 0 -8 4 -15 8 -15 5 0 8 -16 7 -35 0 -25 4 -35 15 -36 10 0 11 -2 3
-6 -10 -3 -9 -8 2 -20 17 -16 21 -38 5 -28 -6 3 -7 -1 -4 -9 3 -9 11 -13 17
-9 6 3 7 1 3 -5 -4 -6 0 -28 9 -48 13 -31 13 -35 0 -31 -9 4 -12 1 -8 -9 3 -7
10 -14 17 -14 6 0 4 -5 -4 -10 -12 -8 -12 -10 5 -11 l20 0 -20 -9 c-11 -5 -14
-9 -6 -9 11 -1 11 -4 0 -18 -10 -14 -8 -13 10 2 21 17 24 18 18 3 -8 -21 -7
-21 30 -6 15 6 34 10 41 9 6 -1 12 3 12 8 0 6 7 7 17 4 10 -4 14 -2 10 4 -3 5
0 10 7 10 7 0 13 -6 13 -13 0 -7 -4 -11 -9 -8 -4 3 -8 0 -8 -6 0 -6 -4 -8 -10
-5 -5 3 -10 -2 -10 -12 0 -15 -2 -16 -10 -3 -9 14 -15 7 -11 -14 1 -5 -6 -6
-15 -2 -14 5 -15 4 -5 -8 11 -13 8 -16 -13 -22 -14 -3 -26 -11 -26 -17 0 -6
-3 -8 -6 -5 -3 4 -14 -2 -25 -13 -10 -10 -26 -19 -35 -19 -8 0 -13 -4 -10 -9
3 -4 -14 -16 -37 -26 -60 -25 -77 -27 -77 -10 0 8 -5 15 -11 15 -5 0 -7 5 -4
10 3 6 0 13 -9 16 -8 3 -12 12 -9 20 3 8 0 14 -7 14 -6 0 -9 4 -6 9 4 5 2 11
-4 13 -5 1 -11 15 -12 31 -1 15 -5 27 -8 27 -6 0 -10 34 -14 105 -2 32 20 147
34 180 4 11 14 35 22 53 7 17 17 32 21 32 5 0 6 4 2 9 -3 6 3 14 12 20 10 6
14 11 9 11 -12 0 14 30 26 30 6 0 5 -7 -2 -15z m-785 -95 c4 -6 -1 -7 -11 -3
-12 4 -15 3 -10 -5 4 -7 2 -12 -3 -12 -12 0 -14 13 -4 23 9 10 21 9 28 -3z
m15 -35 c-14 -17 -30 -20 -30 -4 0 5 4 8 9 4 5 -3 12 -1 16 5 3 5 9 10 12 10
3 0 0 -7 -7 -15z m-55 -25 c14 -15 14 -20 2 -31 -7 -8 -12 -19 -10 -25 2 -7
-3 -14 -11 -17 -9 -4 -15 -3 -15 1 1 4 0 9 -1 12 -7 19 -7 41 1 46 6 4 6 10 0
18 -17 20 16 16 34 -4z m22 -50 c-1 -11 -5 -20 -9 -20 -10 0 -10 4 -2 24 8 22
13 20 11 -4z m-17 -38 c0 -4 -5 -13 -12 -20 -9 -9 -9 -12 -1 -12 7 0 19 10 27
22 9 12 16 19 16 15 0 -5 -11 -23 -26 -42 -15 -21 -21 -36 -15 -40 6 -3 11 -1
11 4 0 6 5 11 12 11 6 0 8 -3 5 -7 -4 -3 1 -15 10 -25 16 -18 16 -18 0 -12 -9
3 -17 9 -17 13 0 14 -29 8 -34 -6 -3 -8 -1 -11 4 -8 5 3 17 2 26 -3 14 -8 13
-10 -5 -15 -14 -3 -28 2 -41 15 -18 20 -19 22 -2 37 19 17 22 34 10 47 -4 4
-3 13 3 21 13 14 29 17 29 5z m1600 -37 c0 -12 -19 -12 -23 0 -4 9 -1 12 9 8
7 -3 14 -7 14 -8z m-1552 -3 c15 12 16 11 3 -4 -14 -19 -32 -15 -30 5 0 8 2 8
6 -1 4 -10 8 -10 21 0z m36 -70 c3 -5 -1 -9 -9 -9 -8 0 -12 4 -9 9 3 4 7 8 9
8 2 0 6 -4 9 -8z m-44 -22 c0 -5 -5 -10 -11 -10 -5 0 -7 5 -4 10 3 6 8 10 11
10 2 0 4 -4 4 -10z m12 -69 c-4 -10 -7 -11 -10 -3 -2 7 -9 9 -14 6 -6 -4 -8
-3 -5 3 10 16 36 11 29 -6z m8 -25 c0 -3 -4 -8 -10 -11 -5 -3 -10 -1 -10 4 0
6 5 11 10 11 6 0 10 -2 10 -4z m-3 -75 c0 -11 -5 -18 -9 -15 -4 3 -5 11 -1 19
7 21 12 19 10 -4z m-36 -80 c-9 -6 -5 -14 16 -31 l28 -22 -27 16 c-33 20 -37
4 -5 -20 13 -10 15 -14 5 -11 -9 3 -19 0 -22 -8 -3 -10 0 -12 11 -8 13 5 15 2
9 -13 -12 -31 -12 -36 3 -42 8 -3 11 0 7 7 -5 7 -1 9 10 4 14 -5 12 -8 -10
-20 -15 -8 -24 -18 -21 -24 4 -5 13 -3 21 6 19 19 30 20 15 2 -6 -8 -7 -18 -3
-22 4 -5 1 -5 -5 -1 -7 4 -13 2 -13 -3 0 -6 5 -11 10 -11 6 0 10 -5 10 -10 0
-6 -8 -5 -20 2 -10 7 -17 14 -14 17 2 3 -10 20 -28 39 -18 19 -28 32 -21 28
14 -8 43 3 43 16 0 5 -4 7 -9 4 -5 -4 -8 2 -6 11 1 10 -2 23 -7 30 -6 7 -5 19
2 32 6 12 8 21 4 21 -3 0 -1 7 6 15 7 9 15 13 19 10 3 -3 0 -10 -8 -14z m39
-11 c0 -5 -4 -10 -10 -10 -5 0 -10 5 -10 10 0 6 5 10 10 10 6 0 10 -4 10 -10z
m34 2 c3 -5 -1 -9 -9 -9 -8 0 -12 4 -9 9 3 4 7 8 9 8 2 0 6 -4 9 -8z m-28 -92
c0 -12 -4 -16 -9 -11 -5 5 -6 14 -3 20 10 15 12 14 12 -9z m28 -165 c-4 -8
-11 -15 -16 -15 -6 0 -5 6 2 15 7 8 14 15 16 15 2 0 1 -7 -2 -15z m-44 -147
c0 -4 -6 -5 -14 -2 -8 3 -12 12 -9 21 5 12 7 12 14 1 5 -7 9 -16 9 -20z m121
9 c-10 -9 -11 -8 -5 6 3 10 9 15 12 12 3 -3 0 -11 -7 -18z m-31 -65 c0 -5 -7
-9 -15 -9 -8 0 -15 4 -15 9 0 4 7 8 15 8 8 0 15 -4 15 -8z m-54 -131 c0 -16
-3 -17 -14 -9 -12 10 -7 19 13 28 1 0 1 -9 1 -19z m108 3 c3 -8 2 -12 -4 -9
-6 3 -10 10 -10 16 0 14 7 11 14 -7z m2184 -660 c-14 -14 -16 -14 -22 1 -4 13
-2 16 9 11 8 -3 15 0 15 6 0 6 3 8 7 4 4 -3 0 -13 -9 -22z m55 0 c4 -1 12 -2
17 -3 6 0 10 -5 10 -10 0 -5 -6 -8 -12 -7 -26 6 -48 18 -48 28 0 5 6 6 13 1 6
-4 15 -8 20 -9z m187 -48 c0 -3 -4 -8 -10 -11 -5 -3 -10 -1 -10 4 0 6 5 11 10
11 6 0 10 -2 10 -4z m413 -9 c3 -8 -1 -14 -8 -14 -7 0 -11 6 -8 14 3 7 6 13 8
13 2 0 5 -6 8 -13z m-133 -17 c0 -5 -2 -10 -4 -10 -3 0 -8 5 -11 10 -3 6 -1
10 4 10 6 0 11 -4 11 -10z"/>
<path d="M1050 2420 c0 -5 5 -10 11 -10 5 0 7 5 4 10 -3 6 -8 10 -11 10 -2 0
-4 -4 -4 -10z"/>
<path d="M121 2584 c1 -5 0 -11 -1 -14 -8 -21 -6 -41 3 -47 7 -3 9 -2 4 2 -4
5 0 16 8 25 14 15 14 18 0 30 -9 7 -15 9 -14 4z"/>
<path d="M115 2409 c-4 -6 -5 -12 -2 -15 2 -3 7 2 10 11 7 17 1 20 -8 4z"/>
<path d="M150 2060 c0 -5 5 -10 11 -10 5 0 7 5 4 10 -3 6 -8 10 -11 10 -2 0
-4 -4 -4 -10z"/>
<path d="M158 1973 c6 -2 9 -10 6 -15 -4 -7 -2 -8 5 -4 13 9 5 26 -12 25 -9 0
-8 -2 1 -6z"/>
<path d="M3354 2930 c-11 -3 -29 -11 -41 -19 -20 -14 -20 -16 -5 -29 9 -7 11
-11 5 -7 -7 3 -13 3 -14 -2 0 -4 -2 -18 -3 -30 -2 -13 1 -23 6 -23 5 0 6 -6 1
-12 -11 -19 -12 -38 -2 -38 6 0 7 -6 2 -12 -10 -17 -10 -40 0 -55 4 -6 4 -14
-1 -17 -10 -6 -8 -68 3 -87 5 -8 4 -10 -3 -5 -14 8 -12 -20 2 -43 6 -9 5 -12
-2 -7 -7 4 -10 -4 -10 -24 1 -16 5 -30 10 -30 4 0 8 -9 8 -21 0 -11 4 -18 9
-14 6 3 16 -1 23 -8 11 -12 15 -12 25 2 12 14 12 14 7 -4 -5 -19 -5 -19 9 -2
15 18 15 18 20 0 4 -17 5 -17 6 1 1 18 2 18 19 -1 9 -10 14 -14 10 -9 -5 6 -8
13 -8 16 0 11 64 -2 72 -14 5 -7 8 -3 8 9 0 17 2 17 10 5 5 -8 10 -10 10 -5 0
12 70 12 88 1 7 -4 12 -2 12 6 1 8 7 5 16 -7 16 -19 16 -19 10 5 -6 19 -5 21
3 9 8 -13 19 -15 50 -9 21 4 47 3 56 -3 13 -7 16 -6 11 2 -4 6 -2 11 5 11 7 0
9 3 6 7 -4 3 -2 13 5 20 13 16 19 53 8 53 -4 0 -7 7 -7 15 0 8 5 15 11 15 6 0
6 4 -2 12 -8 8 -8 17 -1 31 8 15 8 18 -1 12 -9 -6 -9 -2 -1 14 8 14 8 21 1 21
-12 0 -9 22 5 32 6 5 5 8 -3 8 -10 0 -10 5 -2 20 7 14 7 20 0 20 -12 0 -9 22
5 32 6 5 6 8 -2 8 -12 0 -12 17 0 38 5 7 3 12 -4 12 -8 0 -9 3 0 13 6 8 8 16
5 19 -2 3 -7 18 -10 34 -3 16 -6 29 -7 30 -3 3 -130 6 -142 4 -5 -1 -14 -1
-20 0 -19 4 -115 3 -120 -1 -2 -3 -33 -2 -68 1 -36 3 -73 3 -83 0z"/>
<path d="M16 2799 c4 -8 30 -6 38 2 3 3 -5 5 -19 5 -13 0 -22 -3 -19 -7z"/>
<path d="M2319 2758 c-5 -18 -6 -38 -1 -34 7 8 12 36 6 36 -2 0 -4 -1 -5 -2z"/>
<path d="M2436 2747 c3 -10 9 -15 12 -12 3 3 0 11 -7 18 -10 9 -11 8 -5 -6z"/>
<path d="M2520 2725 c-7 -9 -10 -18 -6 -22 3 -3 6 -1 6 6 0 7 4 10 8 7 5 -3 9
1 9 9 0 19 -2 19 -17 0z"/>
<path d="M72 2718 c5 -14 42 -18 60 -7 7 4 9 11 5 16 -5 4 -12 1 -17 -7 -6 -8
-10 -10 -10 -5 0 6 -9 11 -21 12 -11 1 -19 -3 -17 -9z"/>
<path d="M2571 2714 c0 -11 3 -14 6 -6 3 7 2 16 -1 19 -3 4 -6 -2 -5 -13z"/>
<path d="M39 2693 c-12 -16 -12 -17 2 -6 9 7 20 9 24 5 5 -4 5 -1 1 6 -9 16
-11 15 -27 -5z"/>
<path d="M2697 2692 c12 -11 19 -23 15 -27 -4 -5 -1 -5 6 -1 17 10 16 11 -15
30 l-28 17 22 -19z"/>
<path d="M55 2623 c3 -3 -1 -13 -8 -21 -10 -13 -9 -14 2 -7 11 6 13 4 8 -9 -4
-10 -3 -15 3 -11 10 6 8 41 -3 50 -4 3 -5 2 -2 -2z"/>
<path d="M20 2520 c-9 -6 -10 -10 -3 -10 6 0 15 5 18 10 8 12 4 12 -15 0z"/>
<path d="M75 2491 c-3 -6 -10 -9 -15 -6 -4 3 -14 -3 -21 -12 -12 -15 -12 -16
1 -8 8 5 21 10 28 11 18 3 27 12 20 20 -3 3 -9 0 -13 -5z"/>
<path d="M1796 2442 c-3 -5 1 -9 9 -9 8 0 12 4 9 9 -3 4 -7 8 -9 8 -2 0 -6 -4
-9 -8z"/>
<path d="M1854 2439 c-3 -6 -1 -16 5 -22 9 -9 10 -7 5 7 -6 15 -4 17 6 11 9
-5 11 -4 6 3 -9 15 -13 15 -22 1z"/>
<path d="M1935 2441 c-3 -5 -2 -12 3 -15 5 -3 9 1 9 9 0 17 -3 19 -12 6z"/>
<path d="M2015 2400 c3 -5 8 -10 11 -10 2 0 4 5 4 10 0 6 -5 10 -11 10 -5 0
-7 -4 -4 -10z"/>
<path d="M2130 2362 c0 -5 7 -9 15 -9 8 0 12 4 9 9 -3 4 -9 8 -15 8 -5 0 -9
-4 -9 -8z"/>
<path d="M36 2338 c3 -5 10 -6 15 -3 13 9 11 12 -6 12 -8 0 -12 -4 -9 -9z"/>
<path d="M59 2313 c-11 -15 -11 -16 0 -6 7 6 20 9 29 6 10 -4 13 -2 8 5 -10
17 -21 15 -37 -5z"/>
<path d="M140 2305 c-8 -9 -21 -13 -34 -10 -15 5 -17 4 -8 -3 8 -5 14 -13 15
-18 1 -5 5 -8 10 -6 10 3 9 -6 -3 -28 -7 -13 -7 -21 0 -25 5 -3 10 -13 10 -21
0 -8 -4 -12 -10 -9 -5 3 -10 1 -10 -5 0 -7 7 -10 14 -7 10 4 13 1 10 -7 -3 -7
2 -16 12 -20 14 -5 15 -4 5 8 -8 10 -9 16 -2 21 6 3 16 15 21 25 8 16 7 18 -4
14 -20 -8 -28 11 -11 26 17 14 20 30 4 30 -5 0 -7 -4 -4 -10 3 -5 2 -10 -3
-10 -19 0 -22 33 -6 51 10 11 15 19 12 19 -3 0 -11 -7 -18 -15z m-3 -69 c-3
-8 1 -20 9 -27 8 -6 12 -14 9 -17 -9 -9 -33 31 -28 45 3 7 7 13 10 13 3 0 3
-6 0 -14z"/>
<path d="M55 2279 c-4 -5 -1 -8 7 -7 7 2 12 -3 10 -10 -1 -8 2 -11 8 -7 5 3
10 10 10 15 0 12 -29 20 -35 9z"/>
<path d="M90 2240 c0 -5 5 -10 10 -10 6 0 10 5 10 10 0 6 -4 10 -10 10 -5 0
-10 -4 -10 -10z"/>
<path d="M93 2213 c4 -3 -1 -12 -11 -20 -15 -13 -15 -13 6 -3 19 9 23 30 5 30
-4 0 -3 -3 0 -7z"/>
<path d="M79 2168 c-6 -22 -6 -59 0 -62 4 -3 7 8 6 25 -2 25 1 29 19 24 17 -5
18 -4 6 4 -14 10 -29 14 -31 9z"/>
<path d="M70 2079 c0 -5 5 -7 10 -4 6 3 10 8 10 11 0 2 -4 4 -10 4 -5 0 -10
-5 -10 -11z"/>
<path d="M76 1953 c-6 -14 -5 -15 5 -6 7 7 10 15 7 18 -3 3 -9 -2 -12 -12z"/>
<path d="M60 1886 c0 -2 8 -10 18 -17 15 -13 16 -12 3 4 -13 16 -21 21 -21 13z"/>
<path d="M118 1863 c7 -3 16 -2 19 1 4 3 -2 6 -13 5 -11 0 -14 -3 -6 -6z"/>
<path d="M113 1786 c0 -15 22 -15 34 0 4 5 4 6 -1 2 -5 -4 -14 -3 -21 2 -8 7
-12 5 -12 -4z"/>
<path d="M217 1756 c-4 -10 -1 -13 9 -9 7 3 14 9 14 14 0 14 -17 10 -23 -5z"/>
<path d="M130 1740 c0 -5 5 -10 11 -10 5 0 7 5 4 10 -3 6 -8 10 -11 10 -2 0
-4 -4 -4 -10z"/>
<path d="M156 1663 c-6 -14 -5 -15 5 -6 7 7 10 15 7 18 -3 3 -9 -2 -12 -12z"/>
<path d="M535 1660 c-3 -5 -1 -10 4 -10 6 0 11 5 11 10 0 6 -2 10 -4 10 -3 0
-8 -4 -11 -10z"/>
<path d="M541 1636 c2 -2 15 -9 29 -15 24 -11 24 -11 6 3 -16 13 -49 24 -35
12z"/>
<path d="M210 1610 c-6 -4 -10 -13 -8 -20 2 -7 -3 -15 -11 -18 -9 -3 -11 0 -6
8 5 9 4 11 -4 6 -18 -12 -2 -28 21 -20 13 4 18 2 14 -4 -9 -15 7 -22 24 -11
10 5 11 9 3 9 -7 0 -17 10 -24 21 -9 17 -8 20 2 14 8 -5 10 -4 5 3 -11 18 0
14 15 -5 10 -11 10 -14 2 -9 -7 4 -13 2 -13 -3 0 -13 17 -14 24 -2 16 25 -17
48 -44 31z"/>
<path d="M616 1577 c3 -10 9 -15 12 -12 3 3 0 11 -7 18 -10 9 -11 8 -5 -6z"/>
<path d="M126 1542 c-3 -5 1 -9 9 -9 8 0 12 4 9 9 -3 4 -7 8 -9 8 -2 0 -6 -4
-9 -8z"/>
<path d="M666 1518 c3 -5 10 -6 15 -3 13 9 11 12 -6 12 -8 0 -12 -4 -9 -9z"/>
<path d="M259 1501 c-4 -32 -19 -71 -27 -68 -4 1 -8 -1 -9 -5 -6 -17 -2 -20
12 -8 18 15 20 -1 3 -19 -8 -8 -9 -15 -3 -17 24 -10 39 -23 32 -30 -3 -4 -13
-1 -22 6 -8 7 -15 8 -15 4 0 -5 9 -15 19 -21 17 -11 21 -9 26 7 4 11 11 17 17
14 7 -4 8 -2 4 4 -4 7 -2 12 3 12 16 0 9 23 -11 38 -12 9 -16 22 -13 47 3 19
0 37 -5 40 -6 3 -11 1 -11 -4z m22 -91 c4 0 6 -7 5 -15 -2 -17 -7 -18 -31 -9
-11 5 -13 10 -5 19 6 7 8 21 5 31 -4 12 -2 11 6 -3 7 -13 15 -23 20 -23z"/>
<path d="M260 1401 c0 -6 4 -13 10 -16 6 -3 7 1 4 9 -7 18 -14 21 -14 7z"/>
<path d="M720 1500 c-9 -6 -10 -10 -3 -10 6 0 15 5 18 10 8 12 4 12 -15 0z"/>
<path d="M786 1465 c-11 -8 -15 -15 -9 -15 6 0 16 7 23 15 16 19 11 19 -14 0z"/>
<path d="M842 1465 c4 -4 3 -14 -2 -20 -7 -9 -5 -17 7 -26 16 -12 17 -12 6 2
-9 11 -9 19 -2 26 8 8 7 13 -3 18 -7 5 -10 5 -6 0z"/>
<path d="M875 1421 c-3 -5 -2 -12 3 -15 5 -3 9 1 9 9 0 17 -3 19 -12 6z"/>
<path d="M901 1413 c-1 -16 16 -26 24 -13 3 5 11 10 18 10 8 0 8 -3 -1 -12 -7
-7 -12 -16 -12 -22 0 -5 6 -1 14 10 18 23 4 43 -18 25 -11 -9 -15 -9 -19 1 -4
9 -6 9 -6 1z"/>
<path d="M193 1392 c0 -10 7 -19 14 -19 9 0 10 4 3 12 -5 7 -7 15 -3 18 3 4 1
7 -5 7 -6 0 -10 -8 -9 -18z"/>
<path d="M984 1379 c-4 -8 -3 -9 4 -5 8 4 16 -3 22 -18 11 -31 20 -35 13 -6
-7 28 -29 44 -39 29z"/>
<path d="M235 1320 c-3 -5 -1 -10 4 -10 6 0 11 5 11 10 0 6 -2 10 -4 10 -3 0
-8 -4 -11 -10z"/>
<path d="M1116 1293 c-6 -14 -5 -15 5 -6 7 7 10 15 7 18 -3 3 -9 -2 -12 -12z"/>
<path d="M1240 1296 c0 -2 8 -10 18 -17 15 -13 16 -12 3 4 -13 16 -21 21 -21
13z"/>
<path d="M1315 1270 c-3 -5 -1 -10 4 -10 6 0 11 5 11 10 0 6 -2 10 -4 10 -3 0
-8 -4 -11 -10z"/>
<path d="M1227 1239 c7 -7 15 -10 18 -7 3 3 -2 9 -12 12 -14 6 -15 5 -6 -5z"/>
<path d="M2230 1011 c0 -7 -5 -9 -12 -5 -7 5 -8 3 -3 -5 5 -9 10 -10 18 -2 6
6 8 14 4 18 -4 3 -7 1 -7 -6z"/>
<path d="M2275 940 c3 -5 8 -10 11 -10 2 0 4 5 4 10 0 6 -5 10 -11 10 -5 0 -7
-4 -4 -10z"/>
<path d="M2366 902 c-3 -5 1 -9 9 -9 8 0 12 4 9 9 -3 4 -7 8 -9 8 -2 0 -6 -4
-9 -8z"/>
<path d="M2424 893 c3 -20 21 -28 30 -14 4 5 -2 15 -13 20 -16 9 -19 8 -17 -6z"/>
<path d="M3450 899 c0 -5 5 -7 10 -4 6 3 10 8 10 11 0 2 -4 4 -10 4 -5 0 -10
-5 -10 -11z"/>
<path d="M2459 863 c-7 -10 -9 -15 -5 -11 5 4 16 2 25 -5 14 -10 14 -10 4 4
-7 9 -10 19 -6 22 3 4 4 7 1 7 -3 0 -12 -8 -19 -17z"/>
<path d="M3410 859 c0 -5 5 -7 10 -4 6 3 10 8 10 11 0 2 -4 4 -10 4 -5 0 -10
-5 -10 -11z"/>
<path d="M3376 842 c-2 -4 4 -8 14 -8 10 0 16 4 14 8 -3 4 -9 8 -14 8 -5 0
-11 -4 -14 -8z"/>
<path d="M2770 776 c0 -2 7 -7 16 -10 8 -3 12 -2 9 4 -6 10 -25 14 -25 6z"/>
<path d="M2934 758 c-3 -5 -1 -15 5 -21 9 -9 11 -8 6 5 -5 14 -2 16 15 13 13
-2 20 -1 16 2 -11 11 -36 12 -42 1z"/>
<path d="M2995 760 c-3 -5 -1 -10 4 -10 6 0 11 5 11 10 0 6 -2 10 -4 10 -3 0
-8 -4 -11 -10z"/>
</g>
</svg>
